<svg width="0" height="0" class="hidden">
  <symbol xmlns="http://www.w3.org/2000/svg" viewBox="0 0 12 14" id="flame">
    <path d="M11.033 6.331a5.43 5.43 0 00-1.295-1.8l-.455-.417a.127.127 0 00-.203.052l-.203.583c-.127.365-.36.739-.69 1.106a.098.098 0 01-.064.031.086.086 0 01-.067-.023.092.092 0 01-.031-.075c.058-.94-.223-2.002-.84-3.157-.508-.959-1.216-1.707-2.1-2.23L4.438.023a.125.125 0 00-.187.114l.034.75c.023.513-.036.966-.177 1.342-.171.461-.418.89-.734 1.274a4.62 4.62 0 01-.742.72 5.51 5.51 0 00-1.567 1.899 5.434 5.434 0 00-.133 4.535 5.49 5.49 0 002.928 2.9 5.5 5.5 0 002.14.429c.742 0 1.46-.144 2.14-.427a5.445 5.445 0 001.747-1.167A5.408 5.408 0 0011.5 8.533c0-.762-.156-1.503-.467-2.202zM9.14 11.633A4.43 4.43 0 016 12.921a4.43 4.43 0 01-3.14-1.288 4.34 4.34 0 01-1.297-3.1c0-.68.153-1.331.454-1.937a4.42 4.42 0 011.263-1.53c.339-.26.646-.557.915-.888.39-.476.697-1.007.91-1.578a3.75 3.75 0 00.189-.726c.376.347.692.765.956 1.256.522.978.763 1.848.716 2.589a1.156 1.156 0 002.012.847 5.09 5.09 0 00.538-.713c.218.28.401.585.546.913a4.33 4.33 0 01.376 1.767c0 1.17-.461 2.272-1.297 3.1z"></path>
  </symbol>
  <symbol fill="none" xmlns="http://www.w3.org/2000/svg" viewBox="0 0 16 16" id="picture">
    <path d="M14.5 2.5h-13A.5.5 0 001 3v10a.5.5 0 00.5.5h13a.5.5 0 00.5-.5V3a.5.5 0 00-.5-.5zm-.625 9.875H2.125v-.623l2.164-2.568 2.345 2.782 3.649-4.325 3.592 4.259v.475zm0-2.028L10.378 6.2a.124.124 0 00-.19 0l-3.554 4.212-2.25-2.667a.124.124 0 00-.19 0l-2.069 2.453V3.625h11.75v6.722zM4.75 7.125a1.375 1.375 0 100-2.75 1.375 1.375 0 000 2.75zm0-1.813a.437.437 0 11.001.874.437.437 0 01-.001-.873z" fill="#FFC53D"></path>
  </symbol>
  <symbol fill="none" xmlns="http://www.w3.org/2000/svg" viewBox="0 0 24 24" id="logoff">
    <path d="M16.537 2.927a.188.188 0 00-.272.17V4.6c0 .129.068.248.176.319a8.255 8.255 0 011.458 1.167 8.319 8.319 0 012.442 5.906 8.33 8.33 0 01-2.442 5.906 8.274 8.274 0 01-2.653 1.79 8.265 8.265 0 01-3.246.657c-1.125 0-2.22-.22-3.246-.656A8.274 8.274 0 016.1 17.9a8.32 8.32 0 01-2.442-5.906A8.329 8.329 0 016.1 6.086 8.473 8.473 0 017.558 4.92a.374.374 0 00.176-.32V3.095c0-.14-.148-.23-.272-.169a10.14 10.14 0 00-5.587 8.941c-.066 5.597 4.511 10.247 10.106 10.259 5.601.012 10.144-4.53 10.144-10.134 0-3.966-2.274-7.4-5.588-9.064zM11.25 13.125h1.5a.188.188 0 00.187-.188V2.063a.188.188 0 00-.187-.188h-1.5a.188.188 0 00-.188.188v10.874c0 .104.085.188.188.188z" fill="#000"></path>
  </symbol>
  <symbol xmlns="http://www.w3.org/2000/svg" viewBox="0 0 16 16" id="video-camera">
    <path d="M14.25 4.723l-2 1.152V3.5a1 1 0 00-1-1H2a1 1 0 00-1 1v9a1 1 0 001 1h9.25a1 1 0 001-1v-2.375l2 1.152a.5.5 0 00.75-.432V5.156a.5.5 0 00-.75-.433zm-3.125 7.652h-9v-8.75h9v8.75zm2.75-2.61l-1.625-.934v-1.66l1.625-.937v3.532zM3.25 5.626H5a.125.125 0 00.125-.125v-.75A.125.125 0 005 4.625H3.25a.125.125 0 00-.125.125v.75c0 .069.056.125.125.125z"></path>
  </symbol>
</svg>